<svg width="3600" height="2100">
<g>
<rect x="0" y="0" width="3600" height="2100" style="fill:#ddd"/>
<ellipse cx="1400.3364981" cy="1388.12005946" rx="4" ry="4" style="fill:#ffa"/><text x="1380.3364981" y="1388.12005946" style="font-size: 16px; fill:rgba(128,32,32,25)">Acton Town</text>
<ellipse cx="2222.8699254" cy="1312.60930578" rx="4" ry="4" style="fill:#ffa"/><text x="2202.8699254" y="1312.60930578" style="font-size: 16px; fill:rgba(128,32,32,25)">Aldgate</text>
<ellipse cx="2237.43371145" cy="1304.68859735" rx="4" ry="4" style="fill:#ffa"/><text x="2217.43371145" y="1304.68859735" style="font-size: 16px; fill:rgba(128,32,32,25)">Aldgate East</text>
<ellipse cx="1309.12419573" cy="1134.19534843" rx="4" ry="4" style="fill:#ffa"/><text x="1289.12419573" y="1134.19534843" style="font-size: 16px; fill:rgba(128,32,32,25)">Alperton</text>
<ellipse cx="64.8738283637" cy="253.808606642" rx="4" ry="4" style="fill:#ffa"/><text x="44.8738283637" y="253.808606642" style="font-size: 16px; fill:rgba(128,32,32,25)">Amersham</text>
<ellipse cx="2099.46313666" cy="1189.90433104" rx="4" ry="4" style="fill:#ffa"/><text x="2079.46313666" y="1189.90433104" style="font-size: 16px; fill:rgba(128,32,32,25)">Angel</text>
<ellipse cx="1982.01979234" cy="973.20694963" rx="4" ry="4" style="fill:#ffa"/><text x="1962.01979234" y="973.20694963" style="font-size: 16px; fill:rgba(128,32,32,25)">Archway</text>
<ellipse cx="1986.84734259" cy="637.302906372" rx="4" ry="4" style="fill:#ffa"/><text x="1966.84734259" y="637.302906372" style="font-size: 16px; fill:rgba(128,32,32,25)">Arnos Grove</text>
<ellipse cx="2100.19335434" cy="1018.68501719" rx="4" ry="4" style="fill:#ffa"/><text x="2080.19335434" y="1018.68501719" style="font-size: 16px; fill:rgba(128,32,32,25)">Arsenal</text>
<ellipse cx="1891.55393471" cy="1255.11816377" rx="4" ry="4" style="fill:#ffa"/><text x="1871.55393471" y="1255.11816377" style="font-size: 16px; fill:rgba(128,32,32,25)">Baker Street</text>
<ellipse cx="1908.16296314" cy="1777.94346726" rx="4" ry="4" style="fill:#ffa"/><text x="1888.16296314" y="1777.94346726" style="font-size: 16px; fill:rgba(128,32,32,25)">Balham</text>
<ellipse cx="2167.33918282" cy="1316.14260179" rx="4" ry="4" style="fill:#ffa"/><text x="2147.33918282" y="1316.14260179" style="font-size: 16px; fill:rgba(128,32,32,25)">Bank</text>
<ellipse cx="2132.04707246" cy="1266.90021756" rx="4" ry="4" style="fill:#ffa"/><text x="2112.04707246" y="1266.90021756" style="font-size: 16px; fill:rgba(128,32,32,25)">Barbican</text>
<ellipse cx="2853.89970807" cy="1135.3834547" rx="4" ry="4" style="fill:#ffa"/><text x="2833.89970807" y="1135.3834547" style="font-size: 16px; fill:rgba(128,32,32,25)">Barking</text>
<ellipse cx="2887.81426277" cy="840.733101169" rx="4" ry="4" style="fill:#ffa"/><text x="2867.81426277" y="840.733101169" style="font-size: 16px; fill:rgba(128,32,32,25)">Barkingside</text>
<ellipse cx="1659.10130503" cy="1468.77267303" rx="4" ry="4" style="fill:#ffa"/><text x="1639.10130503" y="1468.77267303" style="font-size: 16px; fill:rgba(128,32,32,25)">Barons Court</text>
<ellipse cx="1767.7049586" cy="1323.83030938" rx="4" ry="4" style="fill:#ffa"/><text x="1747.7049586" y="1323.83030938" style="font-size: 16px; fill:rgba(128,32,32,25)">Bayswater</text>
<ellipse cx="3040.59202951" cy="1138.68374987" rx="4" ry="4" style="fill:#ffa"/><text x="3020.59202951" y="1138.68374987" style="font-size: 16px; fill:rgba(128,32,32,25)">Becontree</text>
<ellipse cx="1860.6819537" cy="1072.21580498" rx="4" ry="4" style="fill:#ffa"/><text x="1840.6819537" y="1072.21580498" style="font-size: 16px; fill:rgba(128,32,32,25)">Belsize Park</text>
<ellipse cx="2271.02372495" cy="1416.96463932" rx="4" ry="4" style="fill:#ffa"/><text x="2251.02372495" y="1416.96463932" style="font-size: 16px; fill:rgba(128,32,32,25)">Bermondsey</text>
<ellipse cx="2305.34395614" cy="1225.21748945" rx="4" ry="4" style="fill:#ffa"/><text x="2285.34395614" y="1225.21748945" style="font-size: 16px; fill:rgba(128,32,32,25)">Bethnal Green</text>
<ellipse cx="2105.95193214" cy="1329.10880149" rx="4" ry="4" style="fill:#ffa"/><text x="2085.95193214" y="1329.10880149" style="font-size: 16px; fill:rgba(128,32,32,25)">Blackfriars</text>
<ellipse cx="2362.13866496" cy="830.502186116" rx="4" ry="4" style="fill:#ffa"/><text x="2342.13866496" y="830.502186116" style="font-size: 16px; fill:rgba(128,32,32,25)">Blackhorse Road</text>
<ellipse cx="1924.29202759" cy="1308.18691024" rx="4" ry="4" style="fill:#ffa"/><text x="1904.29202759" y="1308.18691024" style="font-size: 16px; fill:rgba(128,32,32,25)">Bond Street</text>
<ellipse cx="2145.42628315" cy="1398.35097451" rx="4" ry="4" style="fill:#ffa"/><text x="2125.42628315" y="1398.35097451" style="font-size: 16px; fill:rgba(128,32,32,25)">Borough</text>
<ellipse cx="1207.85517314" cy="1435.17566811" rx="4" ry="4" style="fill:#ffa"/><text x="1187.85517314" y="1435.17566811" style="font-size: 16px; fill:rgba(128,32,32,25)">Boston Manor</text>
<ellipse cx="2024.85922985" cy="698.358367172" rx="4" ry="4" style="fill:#ffa"/><text x="2004.85922985" y="698.358367172" style="font-size: 16px; fill:rgba(128,32,32,25)">Bounds Green</text>
<ellipse cx="2427.9393919" cy="1225.81154258" rx="4" ry="4" style="fill:#ffa"/><text x="2407.9393919" y="1225.81154258" style="font-size: 16px; fill:rgba(128,32,32,25)">Bow Road</text>
<ellipse cx="1659.91265801" cy="896.838119201" rx="4" ry="4" style="fill:#ffa"/><text x="1639.91265801" y="896.838119201" style="font-size: 16px; fill:rgba(128,32,32,25)">Brent Cross</text>
<ellipse cx="2060.39243375" cy="1652.86973867" rx="4" ry="4" style="fill:#ffa"/><text x="2040.39243375" y="1652.86973867" style="font-size: 16px; fill:rgba(128,32,32,25)">Brixton</text>
<ellipse cx="2476.62057089" cy="1241.85097715" rx="4" ry="4" style="fill:#ffa"/><text x="2456.62057089" y="1241.85097715" style="font-size: 16px; fill:rgba(128,32,32,25)">Bromley-by-Bow</text>
<ellipse cx="2719.49908641" cy="572.221085454" rx="4" ry="4" style="fill:#ffa"/><text x="2699.49908641" y="572.221085454" style="font-size: 16px; fill:rgba(128,32,32,25)">Buckhurst Hill</text>
<ellipse cx="1456.54703278" cy="724.7607286" rx="4" ry="4" style="fill:#ffa"/><text x="1436.54703278" y="724.7607286" style="font-size: 16px; fill:rgba(128,32,32,25)">Burnt Oak</text>
<ellipse cx="2049.84890173" cy="1084.49290305" rx="4" ry="4" style="fill:#ffa"/><text x="2029.84890173" y="1084.49290305" style="font-size: 16px; fill:rgba(128,32,32,25)">Caledonian Road</text>
<ellipse cx="1947.86183175" cy="1145.21833433" rx="4" ry="4" style="fill:#ffa"/><text x="1927.86183175" y="1145.21833433" style="font-size: 16px; fill:rgba(128,32,32,25)">Camden Town</text>
<ellipse cx="2327.12878374" cy="1418.68079281" rx="4" ry="4" style="fill:#ffa"/><text x="2307.12878374" y="1418.68079281" style="font-size: 16px; fill:rgba(128,32,32,25)">Canada Water</text>
<ellipse cx="2448.02037823" cy="1380.72739826" rx="4" ry="4" style="fill:#ffa"/><text x="2428.02037823" y="1380.72739826" style="font-size: 16px; fill:rgba(128,32,32,25)">Canary Wharf</text>
<ellipse cx="2563.1107989" cy="1312.21327035" rx="4" ry="4" style="fill:#ffa"/><text x="2543.1107989" y="1312.21327035" style="font-size: 16px; fill:rgba(128,32,32,25)">Canning Town</text>
<ellipse cx="2161.61277517" cy="1329.30879938" rx="4" ry="4" style="fill:#ffa"/><text x="2141.61277517" y="1329.30879938" style="font-size: 16px; fill:rgba(128,32,32,25)">Cannon Street</text>
<ellipse cx="1332.41002635" cy="691.09771778" rx="4" ry="4" style="fill:#ffa"/><text x="1312.41002635" y="691.09771778" style="font-size: 16px; fill:rgba(128,32,32,25)">Canons Park</text>
<ellipse cx="254.689858781" cy="294.270225529" rx="4" ry="4" style="fill:#ffa"/><text x="234.689858781" y="294.270225529" style="font-size: 16px; fill:rgba(128,32,32,25)">Chalfont &amp; Latimer</text>
<ellipse cx="1904.53558244" cy="1114.85561869" rx="4" ry="4" style="fill:#ffa"/><text x="1884.53558244" y="1114.85561869" style="font-size: 16px; fill:rgba(128,32,32,25)">Chalk Farm</text>
<ellipse cx="2077.71887671" cy="1283.4346964" rx="4" ry="4" style="fill:#ffa"/><text x="2057.71887671" y="1283.4346964" style="font-size: 16px; fill:rgba(128,32,32,25)">Chancery Lane</text>
<ellipse cx="2029.79631275" cy="1357.70453909" rx="4" ry="4" style="fill:#ffa"/><text x="2009.79631275" y="1357.70453909" style="font-size: 16px; fill:rgba(128,32,32,25)">Charing Cross</text>
<ellipse cx="50.0" cy="50.0" rx="4" ry="4" style="fill:#ffa"/><text x="30.0" y="50.0" style="font-size: 16px; fill:rgba(128,32,32,25)">Chesham</text>
<ellipse cx="2833.33190995" cy="626.081902765" rx="4" ry="4" style="fill:#ffa"/><text x="2813.33190995" y="626.081902765" style="font-size: 16px; fill:rgba(128,32,32,25)">Chigwell</text>
<ellipse cx="1438.7378348" cy="1439.86868786" rx="4" ry="4" style="fill:#ffa"/><text x="1418.7378348" y="1439.86868786" style="font-size: 16px; fill:rgba(128,32,32,25)">Chiswick Park</text>
<ellipse cx="425.709465304" cy="386.158892051" rx="4" ry="4" style="fill:#ffa"/><text x="405.709465304" y="386.158892051" style="font-size: 16px; fill:rgba(128,32,32,25)">Chorleywood</text>
<ellipse cx="1968.71360342" cy="1658.34822867" rx="4" ry="4" style="fill:#ffa"/><text x="1948.71360342" y="1658.34822867" style="font-size: 16px; fill:rgba(128,32,32,25)">Clapham Common</text>
<ellipse cx="2003.2772405" cy="1634.19006796" rx="4" ry="4" style="fill:#ffa"/><text x="1983.2772405" y="1634.19006796" style="font-size: 16px; fill:rgba(128,32,32,25)">Clapham North</text>
<ellipse cx="1930.00335219" cy="1715.36036583" rx="4" ry="4" style="fill:#ffa"/><text x="1910.00335219" y="1715.36036583" style="font-size: 16px; fill:rgba(128,32,32,25)">Clapham South</text>
<ellipse cx="1927.78084541" cy="406.810291112" rx="4" ry="4" style="fill:#ffa"/><text x="1907.78084541" y="406.810291112" style="font-size: 16px; fill:rgba(128,32,32,25)">Cockfosters</text>
<ellipse cx="1514.59933872" cy="773.869120854" rx="4" ry="4" style="fill:#ffa"/><text x="1494.59933872" y="773.869120854" style="font-size: 16px; fill:rgba(128,32,32,25)">Colindale</text>
<ellipse cx="1806.48426408" cy="1944.30897099" rx="4" ry="4" style="fill:#ffa"/><text x="1786.48426408" y="1944.30897099" style="font-size: 16px; fill:rgba(128,32,32,25)">Colliers Wood</text>
<ellipse cx="2024.49412101" cy="1318.28581348" rx="4" ry="4" style="fill:#ffa"/><text x="2004.49412101" y="1318.28581348" style="font-size: 16px; fill:rgba(128,32,32,25)">Covent Garden</text>
<ellipse cx="737.65131226" cy="432.1388685" rx="4" ry="4" style="fill:#ffa"/><text x="717.65131226" y="432.1388685" style="font-size: 16px; fill:rgba(128,32,32,25)">Croxley</text>
<ellipse cx="3195.51988165" cy="1114.45958327" rx="4" ry="4" style="fill:#ffa"/><text x="3175.51988165" y="1114.45958327" style="font-size: 16px; fill:rgba(128,32,32,25)">Dagenham East</text>
<ellipse cx="3118.60361884" cy="1129.17889976" rx="4" ry="4" style="fill:#ffa"/><text x="3098.60361884" y="1129.17889976" style="font-size: 16px; fill:rgba(128,32,32,25)">Dagenham Heathway</text>
<ellipse cx="2867.93611468" cy="445.225726989" rx="4" ry="4" style="fill:#ffa"/><text x="2847.93611468" y="445.225726989" style="font-size: 16px; fill:rgba(128,32,32,25)">Debden</text>
<ellipse cx="1559.71056459" cy="1058.09054162" rx="4" ry="4" style="fill:#ffa"/><text x="1539.71056459" y="1058.09054162" style="font-size: 16px; fill:rgba(128,32,32,25)">Dollis Hill</text>
<ellipse cx="1306.81183973" cy="1306.80078626" rx="4" ry="4" style="fill:#ffa"/><text x="1286.81183973" y="1306.80078626" style="font-size: 16px; fill:rgba(128,32,32,25)">Ealing Broadway</text>
<ellipse cx="1359.26581009" cy="1338.81364949" rx="4" ry="4" style="fill:#ffa"/><text x="1339.26581009" y="1338.81364949" style="font-size: 16px; fill:rgba(128,32,32,25)">Ealing Common</text>
<ellipse cx="1741.99723932" cy="1460.58794099" rx="4" ry="4" style="fill:#ffa"/><text x="1721.99723932" y="1460.58794099" style="font-size: 16px; fill:rgba(128,32,32,25)">Earl's Court</text>
<ellipse cx="1521.45527143" cy="1288.9131864" rx="4" ry="4" style="fill:#ffa"/><text x="1501.45527143" y="1288.9131864" style="font-size: 16px; fill:rgba(128,32,32,25)">East Acton</text>
<ellipse cx="1859.43927278" cy="828.406693073" rx="4" ry="4" style="fill:#ffa"/><text x="1839.43927278" y="828.406693073" style="font-size: 16px; fill:rgba(128,32,32,25)">East Finchley</text>
<ellipse cx="2742.01413169" cy="1145.15232842" rx="4" ry="4" style="fill:#ffa"/><text x="2722.01413169" y="1145.15232842" style="font-size: 16px; fill:rgba(128,32,32,25)">East Ham</text>
<ellipse cx="1672.09106629" cy="1675.14673112" rx="4" ry="4" style="fill:#ffa"/><text x="1652.09106629" y="1675.14673112" style="font-size: 16px; fill:rgba(128,32,32,25)">East Putney</text>
<ellipse cx="920.972928575" cy="897.960219562" rx="4" ry="4" style="fill:#ffa"/><text x="900.972928575" y="897.960219562" style="font-size: 16px; fill:rgba(128,32,32,25)">Eastcote</text>
<ellipse cx="1412.40943049" cy="653.144323228" rx="4" ry="4" style="fill:#ffa"/><text x="1392.40943049" y="653.144323228" style="font-size: 16px; fill:rgba(128,32,32,25)">Edgware</text>
<ellipse cx="1842.7591663" cy="1275.51398797" rx="4" ry="4" style="fill:#ffa"/><text x="1822.7591663" y="1275.51398797" style="font-size: 16px; fill:rgba(128,32,32,25)">Edgware Road (Bakerloo)</text>
<ellipse cx="1851.20535086" cy="1271.32261309" rx="4" ry="4" style="fill:#ffa"/><text x="1831.20535086" y="1271.32261309" style="font-size: 16px; fill:rgba(128,32,32,25)">Edgware Road (Circle Line)</text>
<ellipse cx="2121.04512601" cy="1439.80268195" rx="4" ry="4" style="fill:#ffa"/><text x="2101.04512601" y="1439.80268195" style="font-size: 16px; fill:rgba(128,32,32,25)">Elephant &amp; Castle</text>
<ellipse cx="3331.01582984" cy="1076.63820052" rx="4" ry="4" style="fill:#ffa"/><text x="3311.01582984" y="1076.63820052" style="font-size: 16px; fill:rgba(128,32,32,25)">Elm Park</text>
<ellipse cx="2033.90581561" cy="1357.29530249" rx="4" ry="4" style="fill:#ffa"/><text x="2013.90581561" y="1357.29530249" style="font-size: 16px; fill:rgba(128,32,32,25)">Embankment</text>
<ellipse cx="2994.9534242" cy="126.417212756" rx="4" ry="4" style="fill:#ffa"/><text x="2974.9534242" y="126.417212756" style="font-size: 16px; fill:rgba(128,32,32,25)">Epping</text>
<ellipse cx="1988.95686035" cy="1221.52115885" rx="4" ry="4" style="fill:#ffa"/><text x="1968.95686035" y="1221.52115885" style="font-size: 16px; fill:rgba(128,32,32,25)">Euston</text>
<ellipse cx="1978.12529802" cy="1234.06228053" rx="4" ry="4" style="fill:#ffa"/><text x="1958.12529802" y="1234.06228053" style="font-size: 16px; fill:rgba(128,32,32,25)">Euston Square</text>
<ellipse cx="2898.80809569" cy="768.720660376" rx="4" ry="4" style="fill:#ffa"/><text x="2878.80809569" y="768.720660376" style="font-size: 16px; fill:rgba(128,32,32,25)">Fairlop</text>
<ellipse cx="2103.52395834" cy="1272.04207744" rx="4" ry="4" style="fill:#ffa"/><text x="2083.52395834" y="1272.04207744" style="font-size: 16px; fill:rgba(128,32,32,25)">Farringdon</text>
<ellipse cx="1748.10672729" cy="737.829897506" rx="4" ry="4" style="fill:#ffa"/><text x="1728.10672729" y="737.829897506" style="font-size: 16px; fill:rgba(128,32,32,25)">Finchley Central</text>
<ellipse cx="1798.95016198" cy="1096.3673651" rx="4" ry="4" style="fill:#ffa"/><text x="1778.95016198" y="1096.3673651" style="font-size: 16px; fill:rgba(128,32,32,25)">Finchley Road</text>
<ellipse cx="2100.92357203" cy="975.715173965" rx="4" ry="4" style="fill:#ffa"/><text x="2080.92357203" y="975.715173965" style="font-size: 16px; fill:rgba(128,32,32,25)">Finsbury Park</text>
<ellipse cx="1738.04595029" cy="1534.45514767" rx="4" ry="4" style="fill:#ffa"/><text x="1718.04595029" y="1534.45514767" style="font-size: 16px; fill:rgba(128,32,32,25)">Fulham Broadway</text>
<ellipse cx="2797.87578458" cy="899.742378958" rx="4" ry="4" style="fill:#ffa"/><text x="2777.87578458" y="899.742378958" style="font-size: 16px; fill:rgba(128,32,32,25)">Gants Hill</text>
<ellipse cx="1787.05167048" cy="1442.11288858" rx="4" ry="4" style="fill:#ffa"/><text x="1767.05167048" y="1442.11288858" style="font-size: 16px; fill:rgba(128,32,32,25)">Gloucester Road</text>
<ellipse cx="1741.21022693" cy="926.144740386" rx="4" ry="4" style="fill:#ffa"/><text x="1721.21022693" y="926.144740386" style="font-size: 16px; fill:rgba(128,32,32,25)">Golders Green</text>
<ellipse cx="1608.65137654" cy="1396.38399858" rx="4" ry="4" style="fill:#ffa"/><text x="1588.65137654" y="1396.38399858" style="font-size: 16px; fill:rgba(128,32,32,25)">Goldhawk Road</text>
<ellipse cx="1983.35852476" cy="1268.649374" rx="4" ry="4" style="fill:#ffa"/><text x="1963.35852476" y="1268.649374" style="font-size: 16px; fill:rgba(128,32,32,25)">Goodge Street</text>
<ellipse cx="2904.20359303" cy="657.038671539" rx="4" ry="4" style="fill:#ffa"/><text x="2884.20359303" y="657.038671539" style="font-size: 16px; fill:rgba(128,32,32,25)">Grange Hill</text>
<ellipse cx="1944.57585217" cy="1246.80141992" rx="4" ry="4" style="fill:#ffa"/><text x="1924.57585217" y="1246.80141992" style="font-size: 16px; fill:rgba(128,32,32,25)">Great Portland Street</text>
<ellipse cx="1125.38114239" cy="1125.1129361" rx="4" ry="4" style="fill:#ffa"/><text x="1105.38114239" y="1125.1129361" style="font-size: 16px; fill:rgba(128,32,32,25)">Greenford</text>
<ellipse cx="1410.76923176" cy="1462.25498609" rx="4" ry="4" style="fill:#ffa"/><text x="1390.76923176" y="1462.25498609" style="font-size: 16px; fill:rgba(128,32,32,25)">Gunnersbury</text>
<ellipse cx="1949.48453771" cy="1360.13355635" rx="4" ry="4" style="fill:#ffa"/><text x="1929.48453771" y="1360.13355635" style="font-size: 16px; fill:rgba(128,32,32,25)">Green Park</text>
<ellipse cx="2907.20559907" cy="725.552799442" rx="4" ry="4" style="fill:#ffa"/><text x="2887.20559907" y="725.552799442" style="font-size: 16px; fill:rgba(128,32,32,25)">Hainault</text>
<ellipse cx="1624.67965472" cy="1455.26126457" rx="4" ry="4" style="fill:#ffa"/><text x="1604.67965472" y="1455.26126457" style="font-size: 16px; fill:rgba(128,32,32,25)">Hammersmith (Dist&amp;Picc Line)</text>
<ellipse cx="1615.85619103" cy="1442.24490038" rx="4" ry="4" style="fill:#ffa"/><text x="1595.85619103" y="1442.24490038" style="font-size: 16px; fill:rgba(128,32,32,25)">Hammersmith (H&amp;C Line)</text>
<ellipse cx="1804.45519197" cy="1032.01820971" rx="4" ry="4" style="fill:#ffa"/><text x="1784.45519197" y="1032.01820971" style="font-size: 16px; fill:rgba(128,32,32,25)">Hampstead</text>
<ellipse cx="1340.40185323" cy="1206.60382465" rx="4" ry="4" style="fill:#ffa"/><text x="1320.40185323" y="1206.60382465" style="font-size: 16px; fill:rgba(128,32,32,25)">Hanger Lane</text>
<ellipse cx="1483.51442624" cy="1165.13376756" rx="4" ry="4" style="fill:#ffa"/><text x="1463.51442624" y="1165.13376756" style="font-size: 16px; fill:rgba(128,32,32,25)">Harlesden</text>
<ellipse cx="1170.72623264" cy="796.972969262" rx="4" ry="4" style="fill:#ffa"/><text x="1150.72623264" y="796.972969262" style="font-size: 16px; fill:rgba(128,32,32,25)">Harrow &amp; Wealdstone</text>
<ellipse cx="1165.14960887" cy="883.174897163" rx="4" ry="4" style="fill:#ffa"/><text x="1145.14960887" y="883.174897163" style="font-size: 16px; fill:rgba(128,32,32,25)">Harrow-on-the-Hill</text>
<ellipse cx="812.474750898" cy="1622.52022421" rx="4" ry="4" style="fill:#ffa"/><text x="792.474750898" y="1622.52022421" style="font-size: 16px; fill:rgba(128,32,32,25)">Hatton Cross</text>
<ellipse cx="691.953133363" cy="1594.12514455" rx="4" ry="4" style="fill:#ffa"/><text x="671.953133363" y="1594.12514455" style="font-size: 16px; fill:rgba(128,32,32,25)">Heathrow Terminals 1-2-3</text>
<ellipse cx="715.673930315" cy="1672.09263797" rx="4" ry="4" style="fill:#ffa"/><text x="695.673930315" y="1672.09263797" style="font-size: 16px; fill:rgba(128,32,32,25)">Heathrow Terminal 4</text>
<ellipse cx="551.03653589" cy="1586.20377607" rx="4" ry="4" style="fill:#ffa"/><text x="531.03653589" y="1586.20377607" style="font-size: 16px; fill:rgba(128,32,32,25)">Heathrow Terminal 5</text>
<ellipse cx="1609.64934071" cy="853.736264171" rx="4" ry="4" style="fill:#ffa"/><text x="1589.64934071" y="853.736264171" style="font-size: 16px; fill:rgba(128,32,32,25)">Hendon Central</text>
<ellipse cx="1741.05539646" cy="410.230036019" rx="4" ry="4" style="fill:#ffa"/><text x="1721.05539646" y="410.230036019" style="font-size: 16px; fill:rgba(128,32,32,25)">High Barnet</text>
<ellipse cx="1748.30281508" cy="1402.3382961" rx="4" ry="4" style="fill:#ffa"/><text x="1728.30281508" y="1402.3382961" style="font-size: 16px; fill:rgba(128,32,32,25)">High Street Kensington</text>
<ellipse cx="2092.44493335" cy="1107.46295749" rx="4" ry="4" style="fill:#ffa"/><text x="2072.44493335" y="1107.46295749" style="font-size: 16px; fill:rgba(128,32,32,25)">Highbury &amp; Islington</text>
<ellipse cx="1938.2472989" cy="894.923947998" rx="4" ry="4" style="fill:#ffa"/><text x="1918.2472989" y="894.923947998" style="font-size: 16px; fill:rgba(128,32,32,25)">Highgate</text>
<ellipse cx="700.568890692" cy="1050.56586861" rx="4" ry="4" style="fill:#ffa"/><text x="680.568890692" y="1050.56586861" style="font-size: 16px; fill:rgba(128,32,32,25)">Hillingdon</text>
<ellipse cx="2039.5852865" cy="1291.68543435" rx="4" ry="4" style="fill:#ffa"/><text x="2019.5852865" y="1291.68543435" style="font-size: 16px; fill:rgba(128,32,32,25)">Holborn</text>
<ellipse cx="1694.84140394" cy="1356.96527297" rx="4" ry="4" style="fill:#ffa"/><text x="1674.84140394" y="1356.96527297" style="font-size: 16px; fill:rgba(128,32,32,25)">Holland Park</text>
<ellipse cx="2071.10634989" cy="1055.45030548" rx="4" ry="4" style="fill:#ffa"/><text x="2051.10634989" y="1055.45030548" style="font-size: 16px; fill:rgba(128,32,32,25)">Holloway Road</text>
<ellipse cx="3412.88134584" cy="1049.04773283" rx="4" ry="4" style="fill:#ffa"/><text x="3392.88134584" y="1049.04773283" style="font-size: 16px; fill:rgba(128,32,32,25)">Hornchurch</text>
<ellipse cx="1044.44868232" cy="1594.12448449" rx="4" ry="4" style="fill:#ffa"/><text x="1024.44868232" y="1594.12448449" style="font-size: 16px; fill:rgba(128,32,32,25)">Hounslow Central</text>
<ellipse cx="1084.41998704" cy="1579.27315619" rx="4" ry="4" style="fill:#ffa"/><text x="1064.41998704" y="1579.27315619" style="font-size: 16px; fill:rgba(128,32,32,25)">Hounslow East</text>
<ellipse cx="960.806303284" cy="1578.28966823" rx="4" ry="4" style="fill:#ffa"/><text x="940.806303284" y="1578.28966823" style="font-size: 16px; fill:rgba(128,32,32,25)">Hounslow West</text>
<ellipse cx="1908.83575326" cy="1383.96168753" rx="4" ry="4" style="fill:#ffa"/><text x="1888.83575326" y="1383.96168753" style="font-size: 16px; fill:rgba(128,32,32,25)">Hyde Park Corner</text>
<ellipse cx="733.225848265" cy="998.883246118" rx="4" ry="4" style="fill:#ffa"/><text x="713.225848265" y="998.883246118" style="font-size: 16px; fill:rgba(128,32,32,25)">Ickenham</text>
<ellipse cx="2099.13859546" cy="1482.31048385" rx="4" ry="4" style="fill:#ffa"/><text x="2079.13859546" y="1482.31048385" style="font-size: 16px; fill:rgba(128,32,32,25)">Kennington</text>
<ellipse cx="1618.88438348" cy="1202.60023657" rx="4" ry="4" style="fill:#ffa"/><text x="1598.88438348" y="1202.60023657" style="font-size: 16px; fill:rgba(128,32,32,25)">Kensal Green</text>
<ellipse cx="1679.50683256" cy="1426.07345401" rx="4" ry="4" style="fill:#ffa"/><text x="1659.50683256" y="1426.07345401" style="font-size: 16px; fill:rgba(128,32,32,25)">Kensington (Olympia)</text>
<ellipse cx="1957.96317639" cy="1071.55574595" rx="4" ry="4" style="fill:#ffa"/><text x="1937.96317639" y="1071.55574595" style="font-size: 16px; fill:rgba(128,32,32,25)">Kentish Town</text>
<ellipse cx="1243.15791628" cy="865.101886713" rx="4" ry="4" style="fill:#ffa"/><text x="1223.15791628" y="865.101886713" style="font-size: 16px; fill:rgba(128,32,32,25)">Kenton</text>
<ellipse cx="1372.53137457" cy="1554.74265618" rx="4" ry="4" style="fill:#ffa"/><text x="1352.53137457" y="1554.74265618" style="font-size: 16px; fill:rgba(128,32,32,25)">Kew Gardens</text>
<ellipse cx="1696.98337582" cy="1093.26178733" rx="4" ry="4" style="fill:#ffa"/><text x="1676.98337582" y="1093.26178733" style="font-size: 16px; fill:rgba(128,32,32,25)">Kilburn</text>
<ellipse cx="1741.76591042" cy="1173.87690955" rx="4" ry="4" style="fill:#ffa"/><text x="1721.76591042" y="1173.87690955" style="font-size: 16px; fill:rgba(128,32,32,25)">Kilburn Park</text>
<ellipse cx="2025.63001519" cy="1202.84148814" rx="4" ry="4" style="fill:#ffa"/><text x="2005.63001519" y="1202.84148814" style="font-size: 16px; fill:rgba(128,32,32,25)">King's Cross St. Pancras</text>
<ellipse cx="1397.60223855" cy="848.7198155" rx="4" ry="4" style="fill:#ffa"/><text x="1377.60223855" y="848.7198155" style="font-size: 16px; fill:rgba(128,32,32,25)">Kingsbury</text>
<ellipse cx="1878.32888109" cy="1393.46653765" rx="4" ry="4" style="fill:#ffa"/><text x="1858.32888109" y="1393.46653765" style="font-size: 16px; fill:rgba(128,32,32,25)">Knightsbridge</text>
<ellipse cx="1672.08295276" cy="1290.43132218" rx="4" ry="4" style="fill:#ffa"/><text x="1652.08295276" y="1290.43132218" style="font-size: 16px; fill:rgba(128,32,32,25)">Ladbroke Grove</text>
<ellipse cx="2073.62154414" cy="1411.61816113" rx="4" ry="4" style="fill:#ffa"/><text x="2053.62154414" y="1411.61816113" style="font-size: 16px; fill:rgba(128,32,32,25)">Lambeth North</text>
<ellipse cx="1818.42263357" cy="1324.86660207" rx="4" ry="4" style="fill:#ffa"/><text x="1798.42263357" y="1324.86660207" style="font-size: 16px; fill:rgba(128,32,32,25)">Lancaster Gate</text>
<ellipse cx="1642.51725005" cy="1317.98878692" rx="4" ry="4" style="fill:#ffa"/><text x="1622.51725005" y="1317.98878692" style="font-size: 16px; fill:rgba(128,32,32,25)">Latimer Road</text>
<ellipse cx="2007.37457306" cy="1328.84675805" rx="4" ry="4" style="fill:#ffa"/><text x="1987.37457306" y="1328.84675805" style="font-size: 16px; fill:rgba(128,32,32,25)">Leicester Square</text>
<ellipse cx="2505.6304968" cy="1031.80039023" rx="4" ry="4" style="fill:#ffa"/><text x="2485.6304968" y="1031.80039023" style="font-size: 16px; fill:rgba(128,32,32,25)">Leyton</text>
<ellipse cx="2558.60778984" cy="953.933225788" rx="4" ry="4" style="fill:#ffa"/><text x="2538.60778984" y="953.933225788" style="font-size: 16px; fill:rgba(128,32,32,25)">Leytonstone</text>
<ellipse cx="2194.11557567" cy="1287.95610079" rx="4" ry="4" style="fill:#ffa"/><text x="2174.11557567" y="1287.95610079" style="font-size: 16px; fill:rgba(128,32,32,25)">Liverpool Street</text>
<ellipse cx="2184.50915635" cy="1369.28857517" rx="4" ry="4" style="fill:#ffa"/><text x="2164.50915635" y="1369.28857517" style="font-size: 16px; fill:rgba(128,32,32,25)">London Bridge</text>
<ellipse cx="2755.11748237" cy="469.317881791" rx="4" ry="4" style="fill:#ffa"/><text x="2735.11748237" y="469.317881791" style="font-size: 16px; fill:rgba(128,32,32,25)">Loughton</text>
<ellipse cx="1774.52105793" cy="1207.30289317" rx="4" ry="4" style="fill:#ffa"/><text x="1754.52105793" y="1207.30289317" style="font-size: 16px; fill:rgba(128,32,32,25)">Maida Vale</text>
<ellipse cx="2139.13829753" cy="940.071986038" rx="4" ry="4" style="fill:#ffa"/><text x="2119.13829753" y="940.071986038" style="font-size: 16px; fill:rgba(128,32,32,25)">Manor House</text>
<ellipse cx="2147.41409796" cy="1321.71812047" rx="4" ry="4" style="fill:#ffa"/><text x="2127.41409796" y="1321.71812047" style="font-size: 16px; fill:rgba(128,32,32,25)">Mansion House</text>
<ellipse cx="1884.85236191" cy="1314.87330827" rx="4" ry="4" style="fill:#ffa"/><text x="1864.85236191" y="1314.87330827" style="font-size: 16px; fill:rgba(128,32,32,25)">Marble Arch</text>
<ellipse cx="1867.39184287" cy="1255.05215786" rx="4" ry="4" style="fill:#ffa"/><text x="1847.39184287" y="1255.05215786" style="font-size: 16px; fill:rgba(128,32,32,25)">Marylebone</text>
<ellipse cx="2392.84431861" cy="1237.58699578" rx="4" ry="4" style="fill:#ffa"/><text x="2372.84431861" y="1237.58699578" style="font-size: 16px; fill:rgba(128,32,32,25)">Mile End</text>
<ellipse cx="1678.12753249" cy="685.685233687" rx="4" ry="4" style="fill:#ffa"/><text x="1658.12753249" y="685.685233687" style="font-size: 16px; fill:rgba(128,32,32,25)">Mill Hill East</text>
<ellipse cx="2179.78302523" cy="1337.52653437" rx="4" ry="4" style="fill:#ffa"/><text x="2159.78302523" y="1337.52653437" style="font-size: 16px; fill:rgba(128,32,32,25)">Monument</text>
<ellipse cx="775.818439746" cy="548.49117105" rx="4" ry="4" style="fill:#ffa"/><text x="755.818439746" y="548.49117105" style="font-size: 16px; fill:rgba(128,32,32,25)">Moor Park</text>
<ellipse cx="2169.23949321" cy="1284.68880857" rx="4" ry="4" style="fill:#ffa"/><text x="2149.23949321" y="1284.68880857" style="font-size: 16px; fill:rgba(128,32,32,25)">Moorgate</text>
<ellipse cx="1739.18539008" cy="2050.0" rx="4" ry="4" style="fill:#ffa"/><text x="1719.18539008" y="2050.0" style="font-size: 16px; fill:rgba(128,32,32,25)">Morden</text>
<ellipse cx="1964.69740615" cy="1178.41930382" rx="4" ry="4" style="fill:#ffa"/><text x="1944.69740615" y="1178.41930382" style="font-size: 16px; fill:rgba(128,32,32,25)">Mornington Crescent</text>
<ellipse cx="1512.73322686" cy="1046.40749669" rx="4" ry="4" style="fill:#ffa"/><text x="1492.73322686" y="1046.40749669" style="font-size: 16px; fill:rgba(128,32,32,25)">Neasden</text>
<ellipse cx="2890.77570116" cy="905.286874858" rx="4" ry="4" style="fill:#ffa"/><text x="2870.77570116" y="905.286874858" style="font-size: 16px; fill:rgba(128,32,32,25)">Newbury Park</text>
<ellipse cx="1473.09863363" cy="1248.18754389" rx="4" ry="4" style="fill:#ffa"/><text x="1453.09863363" y="1248.18754389" style="font-size: 16px; fill:rgba(128,32,32,25)">North Acton</text>
<ellipse cx="1358.73843065" cy="1285.3488676" rx="4" ry="4" style="fill:#ffa"/><text x="1338.73843065" y="1285.3488676" style="font-size: 16px; fill:rgba(128,32,32,25)">North Ealing</text>
<ellipse cx="2543.23265081" cy="1400.92520475" rx="4" ry="4" style="fill:#ffa"/><text x="2523.23265081" y="1400.92520475" style="font-size: 16px; fill:rgba(128,32,32,25)">North Greenwich</text>
<ellipse cx="1057.66455143" cy="843.332941698" rx="4" ry="4" style="fill:#ffa"/><text x="1037.66455143" y="843.332941698" style="font-size: 16px; fill:rgba(128,32,32,25)">North Harrow</text>
<ellipse cx="1295.07704681" cy="991.550584284" rx="4" ry="4" style="fill:#ffa"/><text x="1275.07704681" y="991.550584284" style="font-size: 16px; fill:rgba(128,32,32,25)">North Wembley</text>
<ellipse cx="1258.09820662" cy="1405.57202036" rx="4" ry="4" style="fill:#ffa"/><text x="1238.09820662" y="1405.57202036" style="font-size: 16px; fill:rgba(128,32,32,25)">Northfields</text>
<ellipse cx="1034.69621946" cy="1087.43676634" rx="4" ry="4" style="fill:#ffa"/><text x="1014.69621946" y="1087.43676634" style="font-size: 16px; fill:rgba(128,32,32,25)">Northolt</text>
<ellipse cx="1239.15707792" cy="886.46746965" rx="4" ry="4" style="fill:#ffa"/><text x="1219.15707792" y="886.46746965" style="font-size: 16px; fill:rgba(128,32,32,25)">Northwick Park</text>
<ellipse cx="810.245875004" cy="672.023067743" rx="4" ry="4" style="fill:#ffa"/><text x="790.245875004" y="672.023067743" style="font-size: 16px; fill:rgba(128,32,32,25)">Northwood</text>
<ellipse cx="870.171785658" cy="741.671771123" rx="4" ry="4" style="fill:#ffa"/><text x="850.171785658" y="741.671771123" style="font-size: 16px; fill:rgba(128,32,32,25)">Northwood Hills</text>
<ellipse cx="1732.34741262" cy="1345.03140561" rx="4" ry="4" style="fill:#ffa"/><text x="1712.34741262" y="1345.03140561" style="font-size: 16px; fill:rgba(128,32,32,25)">Notting Hill Gate</text>
<ellipse cx="1993.4598694" cy="431.760522661" rx="4" ry="4" style="fill:#ffa"/><text x="1973.4598694" y="431.760522661" style="font-size: 16px; fill:rgba(128,32,32,25)">Oakwood</text>
<ellipse cx="2173.62079932" cy="1231.81807981" rx="4" ry="4" style="fill:#ffa"/><text x="2153.62079932" y="1231.81807981" style="font-size: 16px; fill:rgba(128,32,32,25)">Old Street</text>
<ellipse cx="1100.8093173" cy="1526.27701622" rx="4" ry="4" style="fill:#ffa"/><text x="1080.8093173" y="1526.27701622" style="font-size: 16px; fill:rgba(128,32,32,25)">Osterley</text>
<ellipse cx="2070.862944" cy="1522.50807912" rx="4" ry="4" style="fill:#ffa"/><text x="2050.862944" y="1522.50807912" style="font-size: 16px; fill:rgba(128,32,32,25)">Oval</text>
<ellipse cx="1955.85365863" cy="1304.49057964" rx="4" ry="4" style="fill:#ffa"/><text x="1935.85365863" y="1304.49057964" style="font-size: 16px; fill:rgba(128,32,32,25)">Oxford Circus</text>
<ellipse cx="1816.50861976" cy="1304.39384535" rx="4" ry="4" style="fill:#ffa"/><text x="1796.50861976" y="1304.39384535" style="font-size: 16px; fill:rgba(128,32,32,25)">Paddington</text>
<ellipse cx="1810.70723871" cy="1278.57199528" rx="4" ry="4" style="fill:#ffa"/><text x="1790.70723871" y="1278.57199528" style="font-size: 16px; fill:rgba(128,32,32,25)">Paddington (H&amp;C Line)-Underground</text>
<ellipse cx="1375.81741095" cy="1228.31976692" rx="4" ry="4" style="fill:#ffa"/><text x="1355.81741095" y="1228.31976692" style="font-size: 16px; fill:rgba(128,32,32,25)">Park Royal</text>
<ellipse cx="1708.95894585" cy="1570.42836511" rx="4" ry="4" style="fill:#ffa"/><text x="1688.95894585" y="1570.42836511" style="font-size: 16px; fill:rgba(128,32,32,25)">Parsons Green</text>
<ellipse cx="1214.60157319" cy="1162.5580852" rx="4" ry="4" style="fill:#ffa"/><text x="1194.60157319" y="1162.5580852" style="font-size: 16px; fill:rgba(128,32,32,25)">Perivale</text>
<ellipse cx="1985.34633957" cy="1337.1635019" rx="4" ry="4" style="fill:#ffa"/><text x="1965.34633957" y="1337.1635019" style="font-size: 16px; fill:rgba(128,32,32,25)">Piccadilly Circus</text>
<ellipse cx="1988.92846299" cy="1476.69338146" rx="4" ry="4" style="fill:#ffa"/><text x="1968.92846299" y="1476.69338146" style="font-size: 16px; fill:rgba(128,32,32,25)">Pimlico</text>
<ellipse cx="984.870391797" cy="792.728921675" rx="4" ry="4" style="fill:#ffa"/><text x="964.870391797" y="792.728921675" style="font-size: 16px; fill:rgba(128,32,32,25)">Pinner</text>
<ellipse cx="2595.93002707" cy="1198.55110441" rx="4" ry="4" style="fill:#ffa"/><text x="2575.93002707" y="1198.55110441" style="font-size: 16px; fill:rgba(128,32,32,25)">Plaistow</text>
<ellipse cx="1328.58094736" cy="927.461492156" rx="4" ry="4" style="fill:#ffa"/><text x="1308.58094736" y="927.461492156" style="font-size: 16px; fill:rgba(128,32,32,25)">Preston Road</text>
<ellipse cx="1681.51858228" cy="1611.35202533" rx="4" ry="4" style="fill:#ffa"/><text x="1661.51858228" y="1611.35202533" style="font-size: 16px; fill:rgba(128,32,32,25)">Putney Bridge</text>
<ellipse cx="1695.94597583" cy="1179.01995754" rx="4" ry="4" style="fill:#ffa"/><text x="1675.94597583" y="1179.01995754" style="font-size: 16px; fill:rgba(128,32,32,25)">Queen's Park</text>
<ellipse cx="1366.16231045" cy="781.723823379" rx="4" ry="4" style="fill:#ffa"/><text x="1346.16231045" y="781.723823379" style="font-size: 16px; fill:rgba(128,32,32,25)">Queensbury</text>
<ellipse cx="1769.81041959" cy="1335.42094605" rx="4" ry="4" style="fill:#ffa"/><text x="1749.81041959" y="1335.42094605" style="font-size: 16px; fill:rgba(128,32,32,25)">Queensway</text>
<ellipse cx="1572.85448292" cy="1442.97096532" rx="4" ry="4" style="fill:#ffa"/><text x="1552.85448292" y="1442.97096532" style="font-size: 16px; fill:rgba(128,32,32,25)">Ravenscourt Park</text>
<ellipse cx="1017.88904242" cy="907.333057869" rx="4" ry="4" style="fill:#ffa"/><text x="997.889042417" y="907.333057869" style="font-size: 16px; fill:rgba(128,32,32,25)">Rayners Lane</text>
<ellipse cx="2712.8865596" cy="901.788561969" rx="4" ry="4" style="fill:#ffa"/><text x="2692.8865596" y="901.788561969" style="font-size: 16px; fill:rgba(128,32,32,25)">Redbridge</text>
<ellipse cx="1931.75647503" cy="1249.90369739" rx="4" ry="4" style="fill:#ffa"/><text x="1911.75647503" y="1249.90369739" style="font-size: 16px; fill:rgba(128,32,32,25)">Regent's Park</text>
<ellipse cx="1309.09155094" cy="1647.2103925" rx="4" ry="4" style="fill:#ffa"/><text x="1289.09155094" y="1647.2103925" style="font-size: 16px; fill:rgba(128,32,32,25)">Richmond</text>
<ellipse cx="607.66307558" cy="478.6974527" rx="4" ry="4" style="fill:#ffa"/><text x="587.66307558" y="478.6974527" style="font-size: 16px; fill:rgba(128,32,32,25)">Rickmansworth</text>
<ellipse cx="2701.60875313" cy="632.946516736" rx="4" ry="4" style="fill:#ffa"/><text x="2681.60875313" y="632.946516736" style="font-size: 16px; fill:rgba(128,32,32,25)">Roding Valley</text>
<ellipse cx="1766.82869737" cy="1276.68229246" rx="4" ry="4" style="fill:#ffa"/><text x="1746.82869737" y="1276.68229246" style="font-size: 16px; fill:rgba(128,32,32,25)">Royal Oak</text>
<ellipse cx="818.4179115" cy="932.943348453" rx="4" ry="4" style="fill:#ffa"/><text x="798.4179115" y="932.943348453" style="font-size: 16px; fill:rgba(128,32,32,25)">Ruislip</text>
<ellipse cx="862.973360572" cy="1003.8930942" rx="4" ry="4" style="fill:#ffa"/><text x="842.973360572" y="1003.8930942" style="font-size: 16px; fill:rgba(128,32,32,25)">Ruislip Gardens</text>
<ellipse cx="857.849666483" cy="919.544150029" rx="4" ry="4" style="fill:#ffa"/><text x="837.849666483" y="919.544150029" style="font-size: 16px; fill:rgba(128,32,32,25)">Ruislip Manor</text>
<ellipse cx="2024.22637452" cy="1251.20401369" rx="4" ry="4" style="fill:#ffa"/><text x="2004.22637452" y="1251.20401369" style="font-size: 16px; fill:rgba(128,32,32,25)">Russell Square</text>
<ellipse cx="1985.26520427" cy="1406.53570655" rx="4" ry="4" style="fill:#ffa"/><text x="1965.26520427" y="1406.53570655" style="font-size: 16px; fill:rgba(128,32,32,25)">St. James's Park</text>
<ellipse cx="2224.57376666" cy="855.584429471" rx="4" ry="4" style="fill:#ffa"/><text x="2204.57376666" y="855.584429471" style="font-size: 16px; fill:rgba(128,32,32,25)">Seven Sisters</text>
<ellipse cx="1640.96756586" cy="1373.33473706" rx="4" ry="4" style="fill:#ffa"/><text x="1620.96756586" y="1373.33473706" style="font-size: 16px; fill:rgba(128,32,32,25)">Shepherd's Bush (Central)</text>
<ellipse cx="1610.86231341" cy="1364.60215602" rx="4" ry="4" style="fill:#ffa"/><text x="1590.86231341" y="1364.60215602" style="font-size: 16px; fill:rgba(128,32,32,25)">Shepherd's Bush Market</text>
<ellipse cx="1895.40419407" cy="1453.566629" rx="4" ry="4" style="fill:#ffa"/><text x="1875.40419407" y="1453.566629" style="font-size: 16px; fill:rgba(128,32,32,25)">Sloane Square</text>
<ellipse cx="2615.15909277" cy="876.442294999" rx="4" ry="4" style="fill:#ffa"/><text x="2595.15909277" y="876.442294999" style="font-size: 16px; fill:rgba(128,32,32,25)">Snaresbrook</text>
<ellipse cx="1279.72887715" cy="1399.33446247" rx="4" ry="4" style="fill:#ffa"/><text x="1259.72887715" y="1399.33446247" style="font-size: 16px; fill:rgba(128,32,32,25)">South Ealing</text>
<ellipse cx="1100.24137021" cy="978.157392397" rx="4" ry="4" style="fill:#ffa"/><text x="1080.24137021" y="978.157392397" style="font-size: 16px; fill:rgba(128,32,32,25)">South Harrow</text>
<ellipse cx="1827.65583052" cy="1443.78943853" rx="4" ry="4" style="fill:#ffa"/><text x="1807.65583052" y="1443.78943853" style="font-size: 16px; fill:rgba(128,32,32,25)">South Kensington</text>
<ellipse cx="1276.84713797" cy="939.631990685" rx="4" ry="4" style="fill:#ffa"/><text x="1256.84713797" y="939.631990685" style="font-size: 16px; fill:rgba(128,32,32,25)">South Kenton</text>
<ellipse cx="911.163671008" cy="1029.74100604" rx="4" ry="4" style="fill:#ffa"/><text x="891.163671008" y="1029.74100604" style="font-size: 16px; fill:rgba(128,32,32,25)">South Ruislip</text>
<ellipse cx="1748.66350204" cy="1962.83029354" rx="4" ry="4" style="fill:#ffa"/><text x="1728.66350204" y="1962.83029354" style="font-size: 16px; fill:rgba(128,32,32,25)">South Wimbledon</text>
<ellipse cx="2639.21570872" cy="804.759883724" rx="4" ry="4" style="fill:#ffa"/><text x="2619.21570872" y="804.759883724" style="font-size: 16px; fill:rgba(128,32,32,25)">South Woodford</text>
<ellipse cx="1691.04427198" cy="1768.04343981" rx="4" ry="4" style="fill:#ffa"/><text x="1671.04427198" y="1768.04343981" style="font-size: 16px; fill:rgba(128,32,32,25)">Southfields</text>
<ellipse cx="2010.78225559" cy="530.70337211" rx="4" ry="4" style="fill:#ffa"/><text x="1990.78225559" y="530.70337211" style="font-size: 16px; fill:rgba(128,32,32,25)">Southgate</text>
<ellipse cx="2103.56046922" cy="1379.27526838" rx="4" ry="4" style="fill:#ffa"/><text x="2083.56046922" y="1379.27526838" style="font-size: 16px; fill:rgba(128,32,32,25)">Southwark</text>
<ellipse cx="1821.61530756" cy="1175.44903816" rx="4" ry="4" style="fill:#ffa"/><text x="1801.61530756" y="1175.44903816" style="font-size: 16px; fill:rgba(128,32,32,25)">St. John's Wood</text>
<ellipse cx="2132.69615485" cy="1303.73151175" rx="4" ry="4" style="fill:#ffa"/><text x="2112.69615485" y="1303.73151175" style="font-size: 16px; fill:rgba(128,32,32,25)">St. Paul's</text>
<ellipse cx="1529.89334246" cy="1438.05352551" rx="4" ry="4" style="fill:#ffa"/><text x="1509.89334246" y="1438.05352551" style="font-size: 16px; fill:rgba(128,32,32,25)">Stamford Brook</text>
<ellipse cx="1301.82201888" cy="619.481312409" rx="4" ry="4" style="fill:#ffa"/><text x="1281.82201888" y="619.481312409" style="font-size: 16px; fill:rgba(128,32,32,25)">Stanmore</text>
<ellipse cx="2339.80211734" cy="1260.17421598" rx="4" ry="4" style="fill:#ffa"/><text x="2319.80211734" y="1260.17421598" style="font-size: 16px; fill:rgba(128,32,32,25)">Stepney Green</text>
<ellipse cx="2030.86324193" cy="1587.85392365" rx="4" ry="4" style="fill:#ffa"/><text x="2010.86324193" y="1587.85392365" style="font-size: 16px; fill:rgba(128,32,32,25)">Stockwell</text>
<ellipse cx="1409.04695655" cy="1114.03793755" rx="4" ry="4" style="fill:#ffa"/><text x="1389.04695655" y="1114.03793755" style="font-size: 16px; fill:rgba(128,32,32,25)">Stonebridge Park</text>
<ellipse cx="2517.77645096" cy="1133.03364453" rx="4" ry="4" style="fill:#ffa"/><text x="2497.77645096" y="1133.03364453" style="font-size: 16px; fill:rgba(128,32,32,25)">Stratford</text>
<ellipse cx="1165.76218037" cy="1028.40108619" rx="4" ry="4" style="fill:#ffa"/><text x="1145.76218037" y="1028.40108619" style="font-size: 16px; fill:rgba(128,32,32,25)">Sudbury Hill</text>
<ellipse cx="1246.77171897" cy="1068.45346848" rx="4" ry="4" style="fill:#ffa"/><text x="1226.77171897" y="1068.45346848" style="font-size: 16px; fill:rgba(128,32,32,25)">Sudbury Town</text>
<ellipse cx="1821.29076637" cy="1118.61795519" rx="4" ry="4" style="fill:#ffa"/><text x="1801.29076637" y="1118.61795519" style="font-size: 16px; fill:rgba(128,32,32,25)">Swiss Cottage</text>
<ellipse cx="2068.550588" cy="1331.09095878" rx="4" ry="4" style="fill:#ffa"/><text x="2048.550588" y="1331.09095878" style="font-size: 16px; fill:rgba(128,32,32,25)">Temple</text>
<ellipse cx="2948.66573651" cy="266.283722416" rx="4" ry="4" style="fill:#ffa"/><text x="2928.66573651" y="266.283722416" style="font-size: 16px; fill:rgba(128,32,32,25)">Theydon Bois</text>
<ellipse cx="1881.02381842" cy="1828.44735633" rx="4" ry="4" style="fill:#ffa"/><text x="1861.02381842" y="1828.44735633" style="font-size: 16px; fill:rgba(128,32,32,25)">Tooting Bec</text>
<ellipse cx="1847.45361004" cy="1881.18363106" rx="4" ry="4" style="fill:#ffa"/><text x="1827.45361004" y="1881.18363106" style="font-size: 16px; fill:rgba(128,32,32,25)">Tooting Broadway</text>
<ellipse cx="2000.15353151" cy="1296.3718535" rx="4" ry="4" style="fill:#ffa"/><text x="1980.15353151" y="1296.3718535" style="font-size: 16px; fill:rgba(128,32,32,25)">Tottenham Court Road</text>
<ellipse cx="2286.00130102" cy="817.974265618" rx="4" ry="4" style="fill:#ffa"/><text x="2266.00130102" y="817.974265618" style="font-size: 16px; fill:rgba(128,32,32,25)">Tottenham Hale</text>
<ellipse cx="1801.77772712" cy="545.092659087" rx="4" ry="4" style="fill:#ffa"/><text x="1781.77772712" y="545.092659087" style="font-size: 16px; fill:rgba(128,32,32,25)">Totteridge &amp; Whetstone</text>
<ellipse cx="2217.01601363" cy="1339.20968491" rx="4" ry="4" style="fill:#ffa"/><text x="2197.01601363" y="1339.20968491" style="font-size: 16px; fill:rgba(128,32,32,25)">Tower Hill</text>
<ellipse cx="1968.26735927" cy="1030.83010344" rx="4" ry="4" style="fill:#ffa"/><text x="1948.26735927" y="1030.83010344" style="font-size: 16px; fill:rgba(128,32,32,25)">Tufnell Park</text>
<ellipse cx="1497.96660257" cy="1436.68060271" rx="4" ry="4" style="fill:#ffa"/><text x="1477.96660257" y="1436.68060271" style="font-size: 16px; fill:rgba(128,32,32,25)">Turnham Green</text>
<ellipse cx="2110.45696958" cy="808.522220227" rx="4" ry="4" style="fill:#ffa"/><text x="2090.45696958" y="808.522220227" style="font-size: 16px; fill:rgba(128,32,32,25)">Turnpike Lane</text>
<ellipse cx="3550.0" cy="1013.53655671" rx="4" ry="4" style="fill:#ffa"/><text x="3530.0" y="1013.53655671" style="font-size: 16px; fill:rgba(128,32,32,25)">Upminster</text>
<ellipse cx="3482.3331612" cy="1018.68501719" rx="4" ry="4" style="fill:#ffa"/><text x="3462.3331612" y="1018.68501719" style="font-size: 16px; fill:rgba(128,32,32,25)">Upminster Bridge</text>
<ellipse cx="2934.22365341" cy="1152.21496011" rx="4" ry="4" style="fill:#ffa"/><text x="2914.22365341" y="1152.21496011" style="font-size: 16px; fill:rgba(128,32,32,25)">Upney</text>
<ellipse cx="2665.46297773" cy="1172.67679021" rx="4" ry="4" style="fill:#ffa"/><text x="2645.46297773" y="1172.67679021" style="font-size: 16px; fill:rgba(128,32,32,25)">Upton Park</text>
<ellipse cx="592.53724098" cy="1095.25186533" rx="4" ry="4" style="fill:#ffa"/><text x="572.53724098" y="1095.25186533" style="font-size: 16px; fill:rgba(128,32,32,25)">Uxbridge</text>
<ellipse cx="2026.84704466" cy="1496.83178263" rx="4" ry="4" style="fill:#ffa"/><text x="2006.84704466" y="1496.83178263" style="font-size: 16px; fill:rgba(128,32,32,25)">Vauxhall</text>
<ellipse cx="1944.41954501" cy="1426.87417163" rx="4" ry="4" style="fill:#ffa"/><text x="1924.41954501" y="1426.87417163" style="font-size: 16px; fill:rgba(128,32,32,25)">Victoria</text>
<ellipse cx="2447.65526939" cy="857.234577061" rx="4" ry="4" style="fill:#ffa"/><text x="2427.65526939" y="857.234577061" style="font-size: 16px; fill:rgba(128,32,32,25)">Walthamstow Central</text>
<ellipse cx="2644.81404431" cy="905.286874858" rx="4" ry="4" style="fill:#ffa"/><text x="2624.81404431" y="905.286874858" style="font-size: 16px; fill:rgba(128,32,32,25)">Wanstead</text>
<ellipse cx="1968.38906222" cy="1242.90707161" rx="4" ry="4" style="fill:#ffa"/><text x="1948.38906222" y="1242.90707161" style="font-size: 16px; fill:rgba(128,32,32,25)">Warren Street</text>
<ellipse cx="1783.08481564" cy="1250.84573364" rx="4" ry="4" style="fill:#ffa"/><text x="1763.08481564" y="1250.84573364" style="font-size: 16px; fill:rgba(128,32,32,25)">Warwick Avenue</text>
<ellipse cx="2069.07796744" cy="1383.3676344" rx="4" ry="4" style="fill:#ffa"/><text x="2049.07796744" y="1383.3676344" style="font-size: 16px; fill:rgba(128,32,32,25)">Waterloo</text>
<ellipse cx="835.119369253" cy="365.618778944" rx="4" ry="4" style="fill:#ffa"/><text x="815.119369253" y="365.618778944" style="font-size: 16px; fill:rgba(128,32,32,25)">Watford</text>
<ellipse cx="1328.73711253" cy="1066.48537045" rx="4" ry="4" style="fill:#ffa"/><text x="1308.73711253" y="1066.48537045" style="font-size: 16px; fill:rgba(128,32,32,25)">Wembley Central</text>
<ellipse cx="1393.66619484" cy="985.114546645" rx="4" ry="4" style="fill:#ffa"/><text x="1373.66619484" y="985.114546645" style="font-size: 16px; fill:rgba(128,32,32,25)">Wembley Park</text>
<ellipse cx="1390.1377911" cy="1284.62280266" rx="4" ry="4" style="fill:#ffa"/><text x="1370.1377911" y="1284.62280266" style="font-size: 16px; fill:rgba(128,32,32,25)">West Acton</text>
<ellipse cx="1738.57332973" cy="1491.68332216" rx="4" ry="4" style="fill:#ffa"/><text x="1718.57332973" y="1491.68332216" style="font-size: 16px; fill:rgba(128,32,32,25)">West Brompton</text>
<ellipse cx="1763.07151536" cy="683.686494466" rx="4" ry="4" style="fill:#ffa"/><text x="1743.07151536" y="683.686494466" style="font-size: 16px; fill:rgba(128,32,32,25)">West Finchley</text>
<ellipse cx="2545.42736063" cy="1220.35285436" rx="4" ry="4" style="fill:#ffa"/><text x="2525.42736063" y="1220.35285436" style="font-size: 16px; fill:rgba(128,32,32,25)">West Ham</text>
<ellipse cx="1753.71776866" cy="1095.78882335" rx="4" ry="4" style="fill:#ffa"/><text x="1733.71776866" y="1095.78882335" style="font-size: 16px; fill:rgba(128,32,32,25)">West Hampstead</text>
<ellipse cx="1096.00373849" cy="879.589456481" rx="4" ry="4" style="fill:#ffa"/><text x="1076.00373849" y="879.589456481" style="font-size: 16px; fill:rgba(128,32,32,25)">West Harrow</text>
<ellipse cx="1695.69332457" cy="1465.01693711" rx="4" ry="4" style="fill:#ffa"/><text x="1675.69332457" y="1465.01693711" style="font-size: 16px; fill:rgba(128,32,32,25)">West Kensington</text>
<ellipse cx="756.876787725" cy="947.042209455" rx="4" ry="4" style="fill:#ffa"/><text x="736.876787725" y="947.042209455" style="font-size: 16px; fill:rgba(128,32,32,25)">West Ruislip</text>
<ellipse cx="1710.0623859" cy="1266.04214081" rx="4" ry="4" style="fill:#ffa"/><text x="1690.0623859" y="1266.04214081" style="font-size: 16px; fill:rgba(128,32,32,25)">Westbourne Park</text>
<ellipse cx="2021.97892676" cy="1396.63482102" rx="4" ry="4" style="fill:#ffa"/><text x="2001.97892676" y="1396.63482102" style="font-size: 16px; fill:rgba(128,32,32,25)">Westminster</text>
<ellipse cx="1618.99612707" cy="1324.05472946" rx="4" ry="4" style="fill:#ffa"/><text x="1598.99612707" y="1324.05472946" style="font-size: 16px; fill:rgba(128,32,32,25)">White City</text>
<ellipse cx="2287.21021697" cy="1276.17404701" rx="4" ry="4" style="fill:#ffa"/><text x="2267.21021697" y="1276.17404701" style="font-size: 16px; fill:rgba(128,32,32,25)">Whitechapel</text>
<ellipse cx="1631.8398448" cy="1079.9384957" rx="4" ry="4" style="fill:#ffa"/><text x="1611.8398448" y="1079.9384957" style="font-size: 16px; fill:rgba(128,32,32,25)">Willesden Green</text>
<ellipse cx="1598.09163774" cy="1204.48958955" rx="4" ry="4" style="fill:#ffa"/><text x="1578.09163774" y="1204.48958955" style="font-size: 16px; fill:rgba(128,32,32,25)">Willesden Junction</text>
<ellipse cx="1695.20651278" cy="1919.46758318" rx="4" ry="4" style="fill:#ffa"/><text x="1675.20651278" y="1919.46758318" style="font-size: 16px; fill:rgba(128,32,32,25)">Wimbledon</text>
<ellipse cx="1722.79251421" cy="1840.85455203" rx="4" ry="4" style="fill:#ffa"/><text x="1702.79251421" y="1840.85455203" style="font-size: 16px; fill:rgba(128,32,32,25)">Wimbledon Park</text>
<ellipse cx="2084.85878296" cy="763.770217608" rx="4" ry="4" style="fill:#ffa"/><text x="2064.85878296" y="763.770217608" style="font-size: 16px; fill:rgba(128,32,32,25)">Wood Green</text>
<ellipse cx="1618.29024998" cy="1339.27569082" rx="4" ry="4" style="fill:#ffa"/><text x="1598.29024998" y="1339.27569082" style="font-size: 16px; fill:rgba(128,32,32,25)">Wood Lane</text>
<ellipse cx="2663.63743352" cy="706.147063793" rx="4" ry="4" style="fill:#ffa"/><text x="2643.63743352" y="706.147063793" style="font-size: 16px; fill:rgba(128,32,32,25)">Woodford</text>
<ellipse cx="1775.77837561" cy="624.61835658" rx="4" ry="4" style="fill:#ffa"/><text x="1755.77837561" y="624.61835658" style="font-size: 16px; fill:rgba(128,32,32,25)">Woodside Park</text>
<polyline points="2853.89970807,1135.3834547 2742.01413169,1145.15232842 2665.46297773,1172.67679021 2545.42736063,1220.35285436 2476.62057089,1241.85097715 2427.9393919,1225.81154258 2392.84431861,1237.58699578 2339.80211734,1260.17421598 2287.21021697,1276.17404701 2237.43371145,1304.68859735 2194.11557567,1287.95610079 2169.23949321,1284.68880857 2132.04707246,1266.90021756 2103.52395834,1272.04207744 2025.63001519,1202.84148814 1978.12529802,1234.06228053 1944.57585217,1246.80141992 1891.55393471,1255.11816377 1851.20535086,1271.32261309 1810.70723871,1278.57199528 1766.82869737,1276.68229246 1710.0623859,1266.04214081 1672.08295276,1290.43132218 1642.51725005,1317.98878692 1618.29024998,1339.27569082 1610.86231341,1364.60215602 1608.65137654,1396.38399858 1615.85619103,1442.24490038 " style="fill:none; stroke:#004; stroke-opacity:0.2; stroke-width:3px"/>
<polyline points="1851.20535086,1271.32261309 1816.50861976,1304.39384535 1767.7049586,1323.83030938 1732.34741262,1345.03140561 1748.30281508,1402.3382961 1741.99723932,1460.58794099 1679.50683256,1426.07345401 " style="fill:none; stroke:#004; stroke-opacity:0.2; stroke-width:3px"/>
<polyline points="1739.18539008,2050.0 1748.66350204,1962.83029354 1806.48426408,1944.30897099 1847.45361004,1881.18363106 1881.02381842,1828.44735633 1908.16296314,1777.94346726 1930.00335219,1715.36036583 1968.71360342,1658.34822867 2003.2772405,1634.19006796 2030.86324193,1587.85392365 2070.862944,1522.50807912 2099.13859546,1482.31048385 2121.04512601,1439.80268195 2145.42628315,1398.35097451 2184.50915635,1369.28857517 2167.33918282,1316.14260179 2169.23949321,1284.68880857 2173.62079932,1231.81807981 2099.46313666,1189.90433104 2025.63001519,1202.84148814 1988.95686035,1221.52115885 1947.86183175,1145.21833433 1957.96317639,1071.55574595 1968.26735927,1030.83010344 1982.01979234,973.20694963 1938.2472989,894.923947998 1859.43927278,828.406693073 1748.10672729,737.829897506 1763.07151536,683.686494466 1775.77837561,624.61835658 1801.77772712,545.092659087 1741.05539646,410.230036019 " style="fill:none; stroke:#004; stroke-opacity:0.2; stroke-width:3px"/>
<polyline points="2121.04512601,1439.80268195 2073.62154414,1411.61816113 2069.07796744,1383.3676344 2033.90581561,1357.29530249 2029.79631275,1357.70453909 1985.34633957,1337.1635019 1955.85365863,1304.49057964 1931.75647503,1249.90369739 1891.55393471,1255.11816377 1867.39184287,1255.05215786 1842.7591663,1275.51398797 1816.50861976,1304.39384535 1783.08481564,1250.84573364 1774.52105793,1207.30289317 1741.76591042,1173.87690955 1695.94597583,1179.01995754 1618.88438348,1202.60023657 1598.09163774,1204.48958955 1483.51442624,1165.13376756 1409.04695655,1114.03793755 1328.73711253,1066.48537045 1295.07704681,991.550584284 1276.84713797,939.631990685 1243.15791628,865.101886713 1170.72623264,796.972969262 " style="fill:none; stroke:#004; stroke-opacity:0.2; stroke-width:3px"/>
<polyline points="3550.0,1013.53655671 3482.3331612,1018.68501719 3412.88134584,1049.04773283 3331.01582984,1076.63820052 3195.51988165,1114.45958327 3118.60361884,1129.17889976 3040.59202951,1138.68374987 2934.22365341,1152.21496011 2853.89970807,1135.3834547 2742.01413169,1145.15232842 2665.46297773,1172.67679021 2595.93002707,1198.55110441 2545.42736063,1220.35285436 2476.62057089,1241.85097715 2427.9393919,1225.81154258 2392.84431861,1237.58699578 2339.80211734,1260.17421598 2287.21021697,1276.17404701 2237.43371145,1304.68859735 2217.01601363,1339.20968491 2179.78302523,1337.52653437 2161.61277517,1329.30879938 2147.41409796,1321.71812047 2105.95193214,1329.10880149 2068.550588,1331.09095878 2033.90581561,1357.29530249 2021.97892676,1396.63482102 1985.26520427,1406.53570655 1944.41954501,1426.87417163 1895.40419407,1453.566629 1827.65583052,1443.78943853 1787.05167048,1442.11288858 1741.99723932,1460.58794099 1695.69332457,1465.01693711 1659.10130503,1468.77267303 1624.67965472,1455.26126457 1572.85448292,1442.97096532 1529.89334246,1438.05352551 1497.96660257,1436.68060271 1410.76923176,1462.25498609 1372.53137457,1554.74265618 1309.09155094,1647.2103925 " style="fill:none; stroke:#004; stroke-opacity:0.2; stroke-width:3px"/>
<polyline points="3550.0,1013.53655671 3482.3331612,1018.68501719 3412.88134584,1049.04773283 3331.01582984,1076.63820052 3195.51988165,1114.45958327 3118.60361884,1129.17889976 3040.59202951,1138.68374987 2934.22365341,1152.21496011 2853.89970807,1135.3834547 2742.01413169,1145.15232842 2665.46297773,1172.67679021 2595.93002707,1198.55110441 2545.42736063,1220.35285436 2476.62057089,1241.85097715 2427.9393919,1225.81154258 2392.84431861,1237.58699578 2339.80211734,1260.17421598 2287.21021697,1276.17404701 2237.43371145,1304.68859735 2217.01601363,1339.20968491 2179.78302523,1337.52653437 2161.61277517,1329.30879938 2147.41409796,1321.71812047 2105.95193214,1329.10880149 2068.550588,1331.09095878 2033.90581561,1357.29530249 2021.97892676,1396.63482102 1985.26520427,1406.53570655 1944.41954501,1426.87417163 1895.40419407,1453.566629 1827.65583052,1443.78943853 1787.05167048,1442.11288858 1741.99723932,1460.58794099 1738.57332973,1491.68332216 1738.04595029,1534.45514767 1708.95894585,1570.42836511 1681.51858228,1611.35202533 1672.09106629,1675.14673112 1691.04427198,1768.04343981 1722.79251421,1840.85455203 1695.20651278,1919.46758318 " style="fill:none; stroke:#004; stroke-opacity:0.2; stroke-width:3px"/>
<polyline points="3550.0,1013.53655671 3482.3331612,1018.68501719 3412.88134584,1049.04773283 3331.01582984,1076.63820052 3195.51988165,1114.45958327 3118.60361884,1129.17889976 3040.59202951,1138.68374987 2934.22365341,1152.21496011 2853.89970807,1135.3834547 2742.01413169,1145.15232842 2665.46297773,1172.67679021 2595.93002707,1198.55110441 2545.42736063,1220.35285436 2476.62057089,1241.85097715 2427.9393919,1225.81154258 2392.84431861,1237.58699578 2339.80211734,1260.17421598 2287.21021697,1276.17404701 2237.43371145,1304.68859735 2217.01601363,1339.20968491 2179.78302523,1337.52653437 2161.61277517,1329.30879938 2147.41409796,1321.71812047 2105.95193214,1329.10880149 2068.550588,1331.09095878 2033.90581561,1357.29530249 2021.97892676,1396.63482102 1985.26520427,1406.53570655 1944.41954501,1426.87417163 1895.40419407,1453.566629 1827.65583052,1443.78943853 1787.05167048,1442.11288858 1741.99723932,1460.58794099 1695.69332457,1465.01693711 1659.10130503,1468.77267303 1624.67965472,1455.26126457 1572.85448292,1442.97096532 1529.89334246,1438.05352551 1497.96660257,1436.68060271 1438.7378348,1439.86868786 1400.3364981,1388.12005946 1359.26581009,1338.81364949 1306.81183973,1306.80078626 " style="fill:none; stroke:#004; stroke-opacity:0.2; stroke-width:3px"/>
<polyline points="2701.60875313,632.946516736 2833.33190995,626.081902765 2904.20359303,657.038671539 2907.20559907,725.552799442 2898.80809569,768.720660376 2887.81426277,840.733101169 2890.77570116,905.286874858 2797.87578458,899.742378958 2712.8865596,901.788561969 2644.81404431,905.286874858 2558.60778984,953.933225788 2505.6304968,1031.80039023 2517.77645096,1133.03364453 2392.84431861,1237.58699578 2305.34395614,1225.21748945 2194.11557567,1287.95610079 2167.33918282,1316.14260179 2132.69615485,1303.73151175 2077.71887671,1283.4346964 2039.5852865,1291.68543435 2000.15353151,1296.3718535 1955.85365863,1304.49057964 1924.29202759,1308.18691024 1884.85236191,1314.87330827 1818.42263357,1324.86660207 1769.81041959,1335.42094605 1732.34741262,1345.03140561 1694.84140394,1356.96527297 1640.96756586,1373.33473706 1618.99612707,1324.05472946 1521.45527143,1288.9131864 1473.09863363,1248.18754389 1340.40185323,1206.60382465 1214.60157319,1162.5580852 1125.38114239,1125.1129361 1034.69621946,1087.43676634 911.163671008,1029.74100604 862.973360572,1003.8930942 756.876787725,947.042209455 " style="fill:none; stroke:#004; stroke-opacity:0.2; stroke-width:3px"/>
<polyline points="2447.65526939,857.234577061 2362.13866496,830.502186116 2286.00130102,817.974265618 2224.57376666,855.584429471 2100.92357203,975.715173965 2092.44493335,1107.46295749 2025.63001519,1202.84148814 1988.95686035,1221.52115885 1968.38906222,1242.90707161 1955.85365863,1304.49057964 1949.48453771,1360.13355635 1944.41954501,1426.87417163 1988.92846299,1476.69338146 2026.84704466,1496.83178263 2030.86324193,1587.85392365 2060.39243375,1652.86973867 " style="fill:none; stroke:#004; stroke-opacity:0.2; stroke-width:3px"/>
<polyline points="1927.78084541,406.810291112 1993.4598694,431.760522661 2010.78225559,530.70337211 1986.84734259,637.302906372 2024.85922985,698.358367172 2084.85878296,763.770217608 2110.45696958,808.522220227 2139.13829753,940.071986038 2100.92357203,975.715173965 2100.19335434,1018.68501719 2071.10634989,1055.45030548 2049.84890173,1084.49290305 2025.63001519,1202.84148814 2024.22637452,1251.20401369 2039.5852865,1291.68543435 2024.49412101,1318.28581348 2007.37457306,1328.84675805 1985.34633957,1337.1635019 1949.48453771,1360.13355635 1908.83575326,1383.96168753 1878.32888109,1393.46653765 1827.65583052,1443.78943853 1787.05167048,1442.11288858 1741.99723932,1460.58794099 1659.10130503,1468.77267303 1624.67965472,1455.26126457 1497.96660257,1436.68060271 1400.3364981,1388.12005946 1359.26581009,1338.81364949 1358.73843065,1285.3488676 1375.81741095,1228.31976692 1309.12419573,1134.19534843 1246.77171897,1068.45346848 1165.76218037,1028.40108619 1100.24137021,978.157392397 1017.88904242,907.333057869 920.972928575,897.960219562 857.849666483,919.544150029 818.4179115,932.943348453 733.225848265,998.883246118 700.568890692,1050.56586861 592.53724098,1095.25186533 " style="fill:none; stroke:#004; stroke-opacity:0.2; stroke-width:3px"/>
<polyline points="2994.9534242,126.417212756 2948.66573651,266.283722416 2867.93611468,445.225726989 2755.11748237,469.317881791 2719.49908641,572.221085454 2663.63743352,706.147063793 2639.21570872,804.759883724 2615.15909277,876.442294999 2558.60778984,953.933225788 2505.6304968,1031.80039023 2517.77645096,1133.03364453 2392.84431861,1237.58699578 2305.34395614,1225.21748945 2194.11557567,1287.95610079 2167.33918282,1316.14260179 2132.69615485,1303.73151175 2077.71887671,1283.4346964 2039.5852865,1291.68543435 2000.15353151,1296.3718535 1955.85365863,1304.49057964 1924.29202759,1308.18691024 1884.85236191,1314.87330827 1818.42263357,1324.86660207 1769.81041959,1335.42094605 1732.34741262,1345.03140561 1694.84140394,1356.96527297 1640.96756586,1373.33473706 1618.99612707,1324.05472946 1521.45527143,1288.9131864 1473.09863363,1248.18754389 1390.1377911,1284.62280266 1306.81183973,1306.80078626 " style="fill:none; stroke:#004; stroke-opacity:0.2; stroke-width:3px"/>
<polyline points="1400.3364981,1388.12005946 1279.72887715,1399.33446247 1258.09820662,1405.57202036 1207.85517314,1435.17566811 1100.8093173,1526.27701622 1084.41998704,1579.27315619 1044.44868232,1594.12448449 960.806303284,1578.28966823 812.474750898,1622.52022421 691.953133363,1594.12514455 551.03653589,1586.20377607 " style="fill:none; stroke:#004; stroke-opacity:0.2; stroke-width:3px"/>
<polyline points="1678.12753249,685.685233687 1748.10672729,737.829897506 " style="fill:none; stroke:#004; stroke-opacity:0.2; stroke-width:3px"/>
<polyline points="1927.78084541,406.810291112 1993.4598694,431.760522661 2010.78225559,530.70337211 1986.84734259,637.302906372 2024.85922985,698.358367172 2084.85878296,763.770217608 2110.45696958,808.522220227 2139.13829753,940.071986038 2100.92357203,975.715173965 2100.19335434,1018.68501719 2071.10634989,1055.45030548 2049.84890173,1084.49290305 2025.63001519,1202.84148814 2024.22637452,1251.20401369 2039.5852865,1291.68543435 2024.49412101,1318.28581348 2007.37457306,1328.84675805 1985.34633957,1337.1635019 1949.48453771,1360.13355635 1908.83575326,1383.96168753 1878.32888109,1393.46653765 1827.65583052,1443.78943853 1787.05167048,1442.11288858 1741.99723932,1460.58794099 1659.10130503,1468.77267303 1624.67965472,1455.26126457 1497.96660257,1436.68060271 1400.3364981,1388.12005946 1279.72887715,1399.33446247 1258.09820662,1405.57202036 1207.85517314,1435.17566811 1100.8093173,1526.27701622 1084.41998704,1579.27315619 1044.44868232,1594.12448449 960.806303284,1578.28966823 812.474750898,1622.52022421 715.673930315,1672.09263797 691.953133363,1594.12514455 " style="fill:none; stroke:#004; stroke-opacity:0.2; stroke-width:3px"/>
<polyline points="1739.18539008,2050.0 1748.66350204,1962.83029354 1806.48426408,1944.30897099 1847.45361004,1881.18363106 1881.02381842,1828.44735633 1908.16296314,1777.94346726 1930.00335219,1715.36036583 1968.71360342,1658.34822867 2003.2772405,1634.19006796 2030.86324193,1587.85392365 2070.862944,1522.50807912 2099.13859546,1482.31048385 2069.07796744,1383.3676344 2033.90581561,1357.29530249 2029.79631275,1357.70453909 2007.37457306,1328.84675805 2000.15353151,1296.3718535 1983.35852476,1268.649374 1968.38906222,1242.90707161 1988.95686035,1221.52115885 1964.69740615,1178.41930382 1947.86183175,1145.21833433 1904.53558244,1114.85561869 1860.6819537,1072.21580498 1804.45519197,1032.01820971 1741.21022693,926.144740386 1659.91265801,896.838119201 1609.64934071,853.736264171 1514.59933872,773.869120854 1456.54703278,724.7607286 1412.40943049,653.144323228 " style="fill:none; stroke:#004; stroke-opacity:0.2; stroke-width:3px"/>
<polyline points="2222.8699254,1312.60930578 2194.11557567,1287.95610079 2169.23949321,1284.68880857 2132.04707246,1266.90021756 2103.52395834,1272.04207744 2025.63001519,1202.84148814 1978.12529802,1234.06228053 1944.57585217,1246.80141992 1891.55393471,1255.11816377 1798.95016198,1096.3673651 1393.66619484,985.114546645 1328.58094736,927.461492156 1239.15707792,886.46746965 1165.14960887,883.174897163 1096.00373849,879.589456481 1017.88904242,907.333057869 920.972928575,897.960219562 857.849666483,919.544150029 818.4179115,932.943348453 733.225848265,998.883246118 700.568890692,1050.56586861 592.53724098,1095.25186533 " style="fill:none; stroke:#004; stroke-opacity:0.2; stroke-width:3px"/>
<polyline points="2222.8699254,1312.60930578 2217.01601363,1339.20968491 2179.78302523,1337.52653437 2161.61277517,1329.30879938 2147.41409796,1321.71812047 2105.95193214,1329.10880149 2068.550588,1331.09095878 2033.90581561,1357.29530249 2021.97892676,1396.63482102 1985.26520427,1406.53570655 1944.41954501,1426.87417163 1895.40419407,1453.566629 1827.65583052,1443.78943853 1787.05167048,1442.11288858 1748.30281508,1402.3382961 1732.34741262,1345.03140561 1767.7049586,1323.83030938 1816.50861976,1304.39384535 1851.20535086,1271.32261309 1891.55393471,1255.11816377 1944.57585217,1246.80141992 1978.12529802,1234.06228053 2025.63001519,1202.84148814 2103.52395834,1272.04207744 2132.04707246,1266.90021756 2169.23949321,1284.68880857 2194.11557567,1287.95610079 " style="fill:none; stroke:#004; stroke-opacity:0.2; stroke-width:3px"/>
<polyline points="2222.8699254,1312.60930578 2194.11557567,1287.95610079 2169.23949321,1284.68880857 2132.04707246,1266.90021756 2103.52395834,1272.04207744 2025.63001519,1202.84148814 1978.12529802,1234.06228053 1944.57585217,1246.80141992 1891.55393471,1255.11816377 1798.95016198,1096.3673651 1393.66619484,985.114546645 1328.58094736,927.461492156 1239.15707792,886.46746965 1165.14960887,883.174897163 1057.66455143,843.332941698 984.870391797,792.728921675 870.171785658,741.671771123 810.245875004,672.023067743 775.818439746,548.49117105 737.65131226,432.1388685 835.119369253,365.618778944 " style="fill:none; stroke:#004; stroke-opacity:0.2; stroke-width:3px"/>
<polyline points="1301.82201888,619.481312409 1332.41002635,691.09771778 1366.16231045,781.723823379 1397.60223855,848.7198155 1393.66619484,985.114546645 1512.73322686,1046.40749669 1559.71056459,1058.09054162 1631.8398448,1079.9384957 1696.98337582,1093.26178733 1753.71776866,1095.78882335 1798.95016198,1096.3673651 1821.29076637,1118.61795519 1821.61530756,1175.44903816 1891.55393471,1255.11816377 1924.29202759,1308.18691024 1949.48453771,1360.13355635 2021.97892676,1396.63482102 2069.07796744,1383.3676344 2103.56046922,1379.27526838 2184.50915635,1369.28857517 2271.02372495,1416.96463932 2327.12878374,1418.68079281 2448.02037823,1380.72739826 2543.23265081,1400.92520475 2563.1107989,1312.21327035 2545.42736063,1220.35285436 2517.77645096,1133.03364453 " style="fill:none; stroke:#004; stroke-opacity:0.2; stroke-width:3px"/>
<polyline points="2222.8699254,1312.60930578 2194.11557567,1287.95610079 2169.23949321,1284.68880857 2132.04707246,1266.90021756 2103.52395834,1272.04207744 2025.63001519,1202.84148814 1978.12529802,1234.06228053 1944.57585217,1246.80141992 1891.55393471,1255.11816377 1798.95016198,1096.3673651 1393.66619484,985.114546645 1328.58094736,927.461492156 1239.15707792,886.46746965 1165.14960887,883.174897163 1057.66455143,843.332941698 984.870391797,792.728921675 870.171785658,741.671771123 810.245875004,672.023067743 775.818439746,548.49117105 607.66307558,478.6974527 425.709465304,386.158892051 254.689858781,294.270225529 50.0,50.0 " style="fill:none; stroke:#004; stroke-opacity:0.2; stroke-width:3px"/>
<polyline points="2222.8699254,1312.60930578 2194.11557567,1287.95610079 2169.23949321,1284.68880857 2132.04707246,1266.90021756 2103.52395834,1272.04207744 2025.63001519,1202.84148814 1978.12529802,1234.06228053 1944.57585217,1246.80141992 1891.55393471,1255.11816377 1798.95016198,1096.3673651 1393.66619484,985.114546645 1328.58094736,927.461492156 1239.15707792,886.46746965 1165.14960887,883.174897163 1057.66455143,843.332941698 984.870391797,792.728921675 870.171785658,741.671771123 810.245875004,672.023067743 775.818439746,548.49117105 607.66307558,478.6974527 425.709465304,386.158892051 254.689858781,294.270225529 64.8738283637,253.808606642 " style="fill:none; stroke:#004; stroke-opacity:0.2; stroke-width:3px"/>
<!--<ellipse cx="2000" cy="1325" rx="300" ry="100" style="fill:none; stroke:#004; stroke-opacity:0.8"/>-->
</g>
</svg>

